# xmcd
#
# Track frame offsets:
#	150
#	22418
#	41992
#	58330
#	78150
#	99161
#	111055
#	136024
#	155060
#	170506
#
# Disc length: 2474 seconds
# Revision: 0
# Processed by: cddbd v1.5.2PL0 Copyright (c) Steve Scherf et al.
# Submitted via: dBpowerAMP V12.0
#
DISCID=8309a80a
DTITLE=Frank Solivan and Dirty Kitchen - If You Can't Stand The Heat
DYEAR=2019
DGENRE=Bluegrass
TTITLE0=Crave
TTITLE1=Crooked Eyed John
TTITLE2=My Own Way
TTITLE3=Crack of Noon
TTITLE4=Set in Stone
TTITLE5=Lena
TTITLE6=Wild Mustang
TTITLE7=Rikki Don't Lose That Number
TTITLE8=Shiver
TTITLE9=Be Sure
EXTD=
EXTT0=
EXTT1=
EXTT2=
EXTT3=
EXTT4=
EXTT5=
EXTT6=
EXTT7=
EXTT8=
EXTT9=
PLAYORDER=
